<?xml version="1.0" encoding="UTF-8"?>
<svg width="200px" height="200px" viewBox="0 0 200 200" version="1.1" xmlns="http://www.w3.org/2000/svg" xmlns:xlink="http://www.w3.org/1999/xlink">
    <title>Empty State Illustration</title>
    <defs>
        <linearGradient x1="50%" y1="0%" x2="50%" y2="100%" id="linearGradient-1">
            <stop stop-color="#4E73DF" offset="0%"></stop>
            <stop stop-color="#2E59D9" offset="100%"></stop>
        </linearGradient>
        <linearGradient x1="50%" y1="0%" x2="50%" y2="100%" id="linearGradient-2">
            <stop stop-color="#F8F9FC" offset="0%"></stop>
            <stop stop-color="#E8EAEF" offset="100%"></stop>
        </linearGradient>
    </defs>
    <g id="EmptyState" stroke="none" stroke-width="1" fill="none" fill-rule="evenodd">
        <!-- Background Circle -->
        <circle id="Background" fill="#F8F9FC" cx="100" cy="100" r="100"></circle>
        
        <!-- Document Folder -->
        <g id="Folder" transform="translate(40, 50)">
            <!-- Folder Back -->
            <path d="M110,100 L10,100 C4.5,100 0,95.5 0,90 L0,10 C0,4.5 4.5,0 10,0 L30,0 L40,10 L110,10 C115.5,10 120,14.5 120,20 L120,90 C120,95.5 115.5,100 110,100 Z" fill="#E8EAEF"></path>
            
            <!-- Folder Front -->
            <path d="M110,100 L10,100 C4.5,100 0,95.5 0,90 L0,30 L120,30 L120,90 C120,95.5 115.5,100 110,100 Z" fill="url(#linearGradient-2)"></path>
            
            <!-- Folder Tab -->
            <path d="M40,10 L30,0 L10,0 C4.5,0 0,4.5 0,10 L0,30 L120,30 L120,20 C120,14.5 115.5,10 110,10 L40,10 Z" fill="#D1D3E2"></path>
        </g>
        
        <!-- Plus Icon -->
        <circle id="PlusCircle" fill="url(#linearGradient-1)" cx="130" cy="70" r="20"></circle>
        <rect id="PlusHorizontal" fill="#FFFFFF" x="120" y="68" width="20" height="4" rx="2"></rect>
        <rect id="PlusVertical" fill="#FFFFFF" x="128" y="60" width="4" height="20" rx="2"></rect>
        
        <!-- Document 1 -->
        <rect id="Document1" fill="#FFFFFF" x="55" y="60" width="40" height="50" rx="2"></rect>
        <rect id="Document1Line1" fill="#E8EAEF" x="65" y="70" width="20" height="2" rx="1"></rect>
        <rect id="Document1Line2" fill="#E8EAEF" x="65" y="80" width="20" height="2" rx="1"></rect>
        <rect id="Document1Line3" fill="#E8EAEF" x="65" y="90" width="20" height="2" rx="1"></rect>
        
        <!-- Document 2 (Rotated) -->
        <g id="Document2" transform="translate(85, 80) rotate(-15)">
            <rect fill="#FFFFFF" x="0" y="0" width="40" height="50" rx="2"></rect>
            <rect fill="#E8EAEF" x="10" y="10" width="20" height="2" rx="1"></rect>
            <rect fill="#E8EAEF" x="10" y="20" width="20" height="2" rx="1"></rect>
            <rect fill="#E8EAEF" x="10" y="30" width="20" height="2" rx="1"></rect>
        </g>
    </g>
</svg>
